<svg width="20" height="20" viewBox="0 0 20 20" fill="none" xmlns="http://www.w3.org/2000/svg">
<path d="M13.6832 1.91251L6.90586 1.91251C3.96202 1.91251 2.20703 3.66749 2.20703 6.61134L2.20703 13.3806C2.20703 16.3325 3.96202 18.0875 6.90586 18.0875H13.6751C16.6189 18.0875 18.3739 16.3325 18.3739 13.3887V6.61134C18.382 3.66749 16.627 1.91251 13.6832 1.91251ZM8.60423 13.3887C8.60423 13.9062 8.18368 14.3268 7.658 14.3268C7.1404 14.3268 6.71985 13.9062 6.71985 13.3887L6.71985 10.7521C6.71985 10.2345 7.1404 9.81398 7.658 9.81398C8.18368 9.81398 8.60423 10.2345 8.60423 10.7521L8.60423 13.3887ZM13.8692 13.3887C13.8692 13.9063 13.4486 14.3268 12.931 14.3268C12.4054 14.3268 11.9848 13.9063 11.9848 13.3887L11.9848 6.61134C11.9848 6.09374 12.4054 5.67319 12.931 5.67319C13.4486 5.67319 13.8692 6.09374 13.8692 6.61134L13.8692 13.3887Z" fill="white" fill-opacity="0.87"/>
</svg>
