<svg width="20" height="20" viewBox="0 0 20 20" fill="none" xmlns="http://www.w3.org/2000/svg">
<path d="M12.7784 1.78734C12.4468 1.45575 11.8726 1.6822 11.8726 2.14318V4.96572C11.8726 6.14649 12.8754 7.12508 14.0966 7.12508C14.8649 7.13316 15.9325 7.13316 16.8464 7.13316C17.3073 7.13316 17.55 6.5913 17.2265 6.2678C16.0619 5.09512 13.9753 2.98428 12.7784 1.78734Z" fill="white"/>
<path d="M16.5794 8.24114H14.2422C12.3254 8.24114 10.7645 6.68025 10.7645 4.76352V2.42623C10.7645 1.98142 10.4006 1.61749 9.9558 1.61749L6.5267 1.61749C4.03576 1.61749 2.02197 3.23498 2.02197 6.12222L2.02197 13.2877C2.02197 16.175 4.03576 17.7925 6.5267 17.7925H12.8835C15.3744 17.7925 17.3882 16.175 17.3882 13.2877V9.04989C17.3882 8.60507 17.0243 8.24114 16.5794 8.24114ZM9.30071 14.3553H6.06572C5.73413 14.3553 5.45915 14.0803 5.45915 13.7487C5.45915 13.4171 5.73413 13.1422 6.06572 13.1422H9.30071C9.6323 13.1422 9.90727 13.4171 9.90727 13.7487C9.90727 14.0803 9.6323 14.3553 9.30071 14.3553ZM10.9182 11.1203L6.06572 11.1203C5.73413 11.1203 5.45915 10.8453 5.45915 10.5137C5.45915 10.1821 5.73413 9.90716 6.06572 9.90716L10.9182 9.90716C11.2498 9.90716 11.5248 10.1821 11.5248 10.5137C11.5248 10.8453 11.2498 11.1203 10.9182 11.1203Z" fill="white"/>
</svg>
