<svg width="18" height="17" viewBox="0 0 18 17" fill="none" xmlns="http://www.w3.org/2000/svg">
<rect x="17.5225" y="17" width="16.9198" height="16.1308" rx="8.0654" transform="rotate(-180 17.5225 17)" fill="#FF5B5B" fill-opacity="0.15"/>
<g clip-path="url(#clip0_28_885)">
<path d="M6.96904 9.74445L8.71079 11.405C8.80411 11.4939 8.93067 11.5439 9.06262 11.5439C9.19458 11.5439 9.32113 11.4939 9.41446 11.405L11.1562 9.74445C11.2469 9.65497 11.297 9.53512 11.2959 9.41073C11.2947 9.28633 11.2424 9.16734 11.1501 9.07937C11.0579 8.99141 10.9331 8.94151 10.8026 8.94043C10.6721 8.93935 10.5464 8.98717 10.4525 9.07359L9.56026 9.92426L9.56027 6.79963C9.56027 6.6738 9.50783 6.55313 9.41451 6.46415C9.32118 6.37518 9.19461 6.32519 9.06262 6.32519C8.93064 6.32519 8.80406 6.37518 8.71074 6.46415C8.61741 6.55313 8.56498 6.6738 8.56498 6.79963L8.56498 9.92426L7.67271 9.07359C7.57885 8.98717 7.45314 8.93935 7.32266 8.94043C7.19218 8.94151 7.06737 8.99141 6.9751 9.07937C6.88284 9.16734 6.8305 9.28633 6.82936 9.41073C6.82823 9.53512 6.87839 9.65497 6.96904 9.74445V9.74445Z" fill="#FF5B5B"/>
</g>
<defs>
<clipPath id="clip0_28_885">
<rect width="5.97171" height="5.69322" fill="white" transform="translate(12.0483 11.7812) rotate(-180)"/>
</clipPath>
</defs>
</svg>
