<svg width="139" height="32" viewBox="0 0 139 32" fill="none" xmlns="http://www.w3.org/2000/svg">
<path d="M16.3478 0.174042L18.1806 10.0611L25.4749 3.13962L21.1462 12.2158L31.1158 10.9036L22.279 15.702L31.1158 20.5004L21.1462 19.1883L25.4749 28.2644L18.1806 21.3429L16.3478 31.23L14.515 21.3429L7.22068 28.2644L11.5494 19.1883L1.57982 20.5004L10.4166 15.702L1.57982 10.9036L11.5494 12.2158L7.22068 3.13962L14.515 10.0611L16.3478 0.174042Z" fill="url(#paint0_linear_26_182)"/>
<path d="M41.0372 24.202V7.89764H44.1117L50.9945 19.0661V7.89764H53.8361V24.202H50.7732L43.8788 13.0335V24.202H41.0372ZM56.641 24.202V7.89764L66.2722 7.89764V10.7393H59.4826V14.0467H65.1542V16.8883H59.4826V24.202H56.641ZM72.1601 24.5048C71.0887 24.5048 70.1104 24.2292 69.2254 23.6779C68.348 23.1267 67.6454 22.3852 67.1174 21.4536C66.5972 20.5219 66.3372 19.4932 66.3372 18.3674C66.3372 17.5211 66.4885 16.7292 66.7913 15.9916C67.0941 15.2463 67.5095 14.5941 68.0375 14.0351C68.5732 13.4683 69.1943 13.0258 69.9008 12.7074C70.6073 12.3891 71.3605 12.2299 72.1601 12.2299C73.0685 12.2299 73.8993 12.424 74.6524 12.8122C75.4133 13.1927 76.0577 13.7167 76.5856 14.3844C77.1136 15.0522 77.4979 15.813 77.7386 16.6671C77.9792 17.5211 78.0336 18.414 77.9016 19.3456H69.3884C69.4971 19.7804 69.6757 20.1725 69.9241 20.5219C70.1726 20.8635 70.487 21.1391 70.8674 21.3487C71.2479 21.5506 71.6788 21.6554 72.1601 21.6632C72.657 21.671 73.1073 21.5545 73.5111 21.3138C73.9226 21.0654 74.2642 20.7315 74.5359 20.3123L77.4358 20.9877C76.9622 22.0203 76.2556 22.8666 75.3162 23.5265C74.3768 24.1787 73.3247 24.5048 72.1601 24.5048ZM69.2952 17.2144H75.0251C74.9396 16.7486 74.7572 16.3293 74.4777 15.9567C74.206 15.5762 73.8682 15.2734 73.4645 15.0483C73.0608 14.8231 72.626 14.7105 72.1601 14.7105C71.6943 14.7105 71.2634 14.8231 70.8674 15.0483C70.4715 15.2657 70.1337 15.5646 69.8542 15.945C69.5825 16.3177 69.3962 16.7408 69.2952 17.2144ZM85.6649 24.202L88.8326 7.89764H91.1851L95.1564 18.3441L99.1277 7.89764L101.48 7.89764L104.648 24.202H101.748L99.7915 14.1166L96.123 23.8293H94.1781L90.5097 14.1166L88.5648 24.202H85.6649ZM111.655 7.89764L114.927 7.89764L120.855 24.202L117.839 24.202L116.791 21.3138H109.803L108.755 24.202H105.739L111.655 7.89764ZM110.84 18.4722H115.743L113.285 11.7525L110.84 18.4722ZM121.678 24.202L127.641 16.0032L121.748 7.89764H125.254L129.4 13.6042L133.557 7.89764H137.063L131.17 16.0032L137.133 24.202H133.604L129.4 18.4256L125.207 24.202H121.678Z" fill="white"/>
<defs>
<linearGradient id="paint0_linear_26_182" x1="4.77366" y1="4.98708" x2="28.6272" y2="12.4148" gradientUnits="userSpaceOnUse">
<stop stop-color="#6E38E0"/>
<stop offset="1" stop-color="#FF5F36"/>
</linearGradient>
</defs>
</svg>
