<svg width="20" height="20" viewBox="0 0 20 20" fill="none" xmlns="http://www.w3.org/2000/svg">
<path d="M7.27857 1.61749C5.15965 1.61749 3.43701 3.34012 3.43701 5.45904C3.43701 7.53753 5.0626 9.21973 7.18152 9.29251C7.24622 9.28443 7.31092 9.28443 7.35944 9.29251C7.37562 9.29251 7.3837 9.29251 7.39988 9.29251C7.40797 9.29251 7.40797 9.29251 7.41605 9.29251C9.48645 9.21973 11.112 7.53753 11.1201 5.45904C11.1201 3.34012 9.39749 1.61749 7.27857 1.61749Z" fill="white"/>
<path d="M11.387 11.4438C9.13059 9.93954 5.45078 9.93954 3.1782 11.4438C2.15109 12.1312 1.58496 13.0613 1.58496 14.0561C1.58496 15.0508 2.15109 15.9728 3.17011 16.6522C4.30236 17.4124 5.79045 17.7925 7.27855 17.7925C8.76665 17.7925 10.2547 17.4124 11.387 16.6522C12.406 15.9647 12.9721 15.0427 12.9721 14.0399C12.9641 13.0451 12.406 12.1232 11.387 11.4438Z" fill="white"/>
<path d="M16.1671 5.93623C16.2965 7.5052 15.1804 8.88007 13.6357 9.06609C13.6276 9.06609 13.6276 9.06609 13.6195 9.06609H13.5952C13.5467 9.06609 13.4982 9.06608 13.4578 9.08226C12.6733 9.1227 11.9535 8.87199 11.4116 8.411C12.2446 7.66695 12.7218 6.55088 12.6247 5.33775C12.5681 4.68267 12.3417 4.08419 12.002 3.57468C12.3093 3.42102 12.6652 3.32397 13.0291 3.29162C14.6143 3.15413 16.0296 4.33491 16.1671 5.93623Z" fill="white"/>
<path d="M17.7844 13.4172C17.7197 14.2016 17.2183 14.881 16.3772 15.342C15.5685 15.7868 14.5494 15.9971 13.5385 15.9728C14.1208 15.4471 14.4605 14.792 14.5252 14.0965C14.6061 13.0937 14.1289 12.1312 13.1746 11.3629C12.6327 10.9343 12.0019 10.5946 11.3145 10.3439C13.1018 9.82631 15.3501 10.1741 16.7331 11.2901C17.4771 11.8886 17.8572 12.6408 17.7844 13.4172Z" fill="white"/>
</svg>
