<svg width="87" height="85" viewBox="0 0 87 85" fill="none" xmlns="http://www.w3.org/2000/svg">
<ellipse cx="43.3741" cy="42.5" rx="43.3741" ry="42.5" fill="#00B074" fill-opacity="0.15"/>
<path d="M42.9193 23.9521C42.3084 23.9521 41.8284 23.4818 41.8284 22.8832V20.1896C41.8284 17.2822 39.4285 14.9306 36.5049 14.9306C35.065 14.9306 33.7559 15.4865 32.7087 16.4698C31.6614 17.4532 31.1378 18.7786 31.1378 20.1896V22.8832C31.1378 23.4818 30.6578 23.9521 30.0469 23.9521C29.436 23.9521 28.9561 23.4818 28.9561 22.8832V20.1896C28.9561 18.2228 29.7415 16.3843 31.1378 14.9734C32.5778 13.5624 34.4541 12.7928 36.4613 12.7928C40.6066 12.7928 43.9665 16.085 43.9665 20.1468V22.8404C44.0101 23.4818 43.5302 23.9521 42.9193 23.9521Z" fill="#FFD497"/>
<path d="M60.0678 59.9952H28.2579L22.978 20.0614H57.8424L60.0678 59.9952Z" fill="#00B074"/>
<path d="M28.2581 59.9952L20.7092 58.7125L13.1167 59.9952L15.3857 20.0614H25.989L28.2581 59.9952Z" fill="#0A5239"/>
<path d="M42.0902 33.8286C37.9449 33.8286 34.585 30.5365 34.585 26.4747V23.7811C34.585 23.1825 35.0649 22.7122 35.6758 22.7122C36.2867 22.7122 36.7667 23.1825 36.7667 23.7811V26.4747C36.7667 29.3821 39.1666 31.6909 42.0902 31.6909C45.0137 31.6909 47.4573 29.3393 47.4573 26.4319V23.7383C47.4573 23.1397 47.9373 22.6694 48.5482 22.6694C49.1591 22.6694 49.639 23.1397 49.639 23.7383V26.4319C49.639 30.5365 46.2792 33.8286 42.0902 33.8286Z" fill="white"/>
<path opacity="0.1" d="M44.0542 54.5224C44.0542 56.4892 44.5778 58.3704 45.4941 59.9951H60.1119L59.1956 43.5769C58.1047 43.2349 56.9702 43.0639 55.792 43.0639C49.2904 43.0639 44.0542 48.1946 44.0542 54.5224Z" fill="#0C1E5B"/>
<path d="M61.8573 65.9809C68.3158 65.9809 73.5515 60.8508 73.5515 54.5224C73.5515 48.194 68.3158 43.0639 61.8573 43.0639C55.3987 43.0639 50.1631 48.194 50.1631 54.5224C50.1631 60.8508 55.3987 65.9809 61.8573 65.9809Z" fill="#FF6966"/>
<path d="M60.6352 58.9691C60.2862 58.9691 59.9807 58.8409 59.7189 58.5843L56.0099 54.9501C55.4863 54.437 55.4863 53.6247 56.0099 53.1544C56.5335 52.6413 57.3626 52.6413 57.8426 53.1544L60.6352 55.8907L65.8714 50.76C66.3951 50.247 67.2241 50.247 67.7041 50.76C68.2277 51.2731 68.2277 52.0855 67.7041 52.5558L61.5516 58.5843C61.2897 58.8409 60.9407 58.9691 60.6352 58.9691Z" fill="white"/>
</svg>
