<svg width="20" height="20" viewBox="0 0 20 20" fill="none" xmlns="http://www.w3.org/2000/svg">
<path d="M17.0563 5.64507C16.3689 4.88485 15.2204 4.50474 13.5544 4.50474H13.3603V4.47239C13.3603 3.11369 13.3603 1.43149 10.3194 1.43149L9.09013 1.43149C6.04923 1.43149 6.04923 3.12178 6.04923 4.47239V4.51282H5.85513C4.18102 4.51282 3.04069 4.89294 2.35325 5.65316C1.55259 6.54278 1.57685 7.73973 1.65773 8.55657L1.66581 8.61318L1.72481 9.23263C1.73865 9.37799 1.81702 9.50937 1.9393 9.58917C2.1354 9.71713 2.436 9.91001 2.62014 10.0123C2.73336 10.0851 2.85468 10.1498 2.97599 10.2145C4.35895 10.9747 5.8794 11.4842 7.42411 11.7349C7.49689 12.4952 7.82848 13.3848 9.59964 13.3848C11.3708 13.3848 11.7186 12.5033 11.7752 11.7188C13.425 11.4519 15.0183 10.8777 16.4578 10.0366C16.5064 10.0123 16.5387 9.98805 16.5791 9.96379C16.8899 9.78814 17.2119 9.573 17.5076 9.36078C17.6174 9.2819 17.6875 9.15949 17.7025 9.02507L17.7114 8.94477L17.7518 8.56465C17.7599 8.51613 17.7599 8.47569 17.768 8.41908C17.8327 7.60224 17.8165 6.48617 17.0563 5.64507ZM10.5863 11.185C10.5863 12.0423 10.5863 12.1717 9.59155 12.1717C8.59679 12.1717 8.59679 12.018 8.59679 11.1931V10.1741H10.5863L10.5863 11.185ZM7.20574 4.50474V4.47239C7.20574 3.09751 7.20574 2.588 9.09013 2.588H10.3194C12.2038 2.588 12.2038 3.1056 12.2038 4.47239V4.51282L7.20574 4.51282V4.50474Z" fill="white"/>
<path d="M16.7506 11.1696C17.0942 11.0072 17.4895 11.2795 17.4551 11.658L17.1779 14.7111C17.0081 16.3286 16.3449 17.9785 12.7864 17.9785H6.62376C3.06526 17.9785 2.40209 16.3286 2.23225 14.7192L1.96953 11.8293C1.93552 11.4552 2.32209 11.1834 2.66471 11.3374C3.59561 11.7557 5.16006 12.4286 6.16548 12.6994C6.32465 12.7423 6.45387 12.8568 6.52608 13.005C7.02511 14.0292 8.08217 14.5737 9.59995 14.5737C11.1028 14.5737 12.1728 14.0082 12.6737 12.9809C12.746 12.8327 12.8751 12.7182 13.0344 12.6751C14.1037 12.3854 15.7742 11.631 16.7506 11.1696Z" fill="white"/>
</svg>
