<svg width="25" height="17" viewBox="0 0 25 17" fill="none" xmlns="http://www.w3.org/2000/svg">
<rect x="24.2334" y="17" width="23.8271" height="16.1308" rx="8.0654" transform="rotate(-180 24.2334 17)" fill="#2ED6A3" fill-opacity="0.15"/>
<g clip-path="url(#clip0_28_776)">
<path d="M9.37113 8.79561C9.50255 8.88455 9.68077 8.93452 9.8666 8.93452C10.0524 8.93452 10.2306 8.88455 10.3621 8.79561L11.6186 7.94495L11.6186 11.0696C11.6186 11.1954 11.6924 11.3161 11.8238 11.4051C11.9553 11.494 12.1335 11.544 12.3194 11.544C12.5052 11.544 12.6835 11.494 12.8149 11.4051C12.9463 11.3161 13.0202 11.1954 13.0202 11.0696L13.0202 7.94495L14.2767 8.79561C14.4089 8.88203 14.5859 8.92985 14.7696 8.92877C14.9534 8.92769 15.1292 8.8778 15.2591 8.78983C15.389 8.70187 15.4627 8.58287 15.4643 8.45848C15.4659 8.33408 15.3953 8.21424 15.2676 8.12476L12.8148 6.46424C12.6834 6.37529 12.5052 6.32533 12.3194 6.32533C12.1336 6.32533 11.9553 6.37529 11.8239 6.46424L9.37113 8.12476C9.23975 8.21373 9.16595 8.33438 9.16595 8.46019C9.16595 8.58599 9.23975 8.70664 9.37113 8.79561Z" fill="#00A389"/>
</g>
<defs>
<clipPath id="clip0_28_776">
<rect width="8.40956" height="5.69322" fill="white" transform="translate(16.5244 11.7812) rotate(-180)"/>
</clipPath>
</defs>
</svg>
